<svg width="1297" height="1277" viewBox="0 0 1297 1277" fill="none" xmlns="http://www.w3.org/2000/svg">
<path d="M1295.8 639.244C1292.98 974.259 992.305 1276.25 655.094 1275.77C317.882 1275.29 -77.0759 974.259 14.392 639.244C105.86 304.23 317.882 31.1653 655.094 2.71636C992.305 -25.7325 1298.61 304.23 1295.8 639.244Z" stroke="url(#paint0_linear_142_38)" stroke-opacity="0.4" stroke-width="1.5" stroke-linecap="round"/>
<path d="M1256.34 627.916C1254.11 931.701 981.141 1205.49 675.365 1205.11C369.588 1204.73 21.9029 931.701 94.3895 627.916C166.876 324.132 369.588 73.2708 675.365 50.7256C981.141 28.1804 1258.57 324.132 1256.34 627.916Z" stroke="url(#paint1_linear_142_38)" stroke-opacity="0.4" stroke-width="1.5" stroke-linecap="round"/>
<path d="M1206.75 622.252C1204.83 894.807 959.842 1140.43 685.5 1140.11C411.158 1139.78 101.814 894.807 164.251 622.252C226.687 349.698 411.158 123.818 685.5 104.399C959.842 84.9797 1208.67 349.698 1206.75 622.252Z" stroke="url(#paint2_linear_142_38)" stroke-opacity="0.4" stroke-width="1.5" stroke-linecap="round"/>
<path d="M1153.1 618.854C1151.38 860.178 934.488 1077.66 691.582 1077.37C448.675 1077.07 173.976 860.178 230.059 618.854C286.142 377.53 448.675 177.781 691.582 160.338C934.488 142.894 1154.83 377.53 1153.1 618.854Z" stroke="url(#paint3_linear_142_38)" stroke-opacity="0.4" stroke-width="1.5" stroke-linecap="round"/>
<path d="M1097.43 616.588C1095.84 826.682 907.107 1016.04 695.635 1015.77C484.164 1015.5 242.199 826.682 293.839 616.588C345.48 406.494 484.164 233.471 695.635 217.41C907.107 201.348 1099.02 406.494 1097.43 616.588Z" stroke="url(#paint4_linear_142_38)" stroke-opacity="0.4" stroke-width="1.5" stroke-linecap="round"/>
<path d="M1040.6 614.97C1039.11 793.834 878.568 955.065 698.532 954.811C518.495 954.557 308.138 793.834 356.462 614.97C404.786 436.106 518.495 290.159 698.532 275.129C878.568 260.099 1042.09 436.106 1040.6 614.97Z" stroke="url(#paint5_linear_142_38)" stroke-opacity="0.4" stroke-width="1.5" stroke-linecap="round"/>
<path d="M983.047 613.756C981.64 761.39 849.305 894.5 700.703 894.26C552.102 894.02 372.626 761.39 418.36 613.756C464.094 466.123 552.102 347.477 700.703 333.252C849.305 319.028 984.454 466.123 983.047 613.756Z" stroke="url(#paint6_linear_142_38)" stroke-opacity="0.4" stroke-width="1.5" stroke-linecap="round"/>
<path d="M925.009 612.812C923.666 729.216 819.559 834.208 702.392 833.979C585.225 833.749 436.134 729.216 479.775 612.812C523.417 496.409 585.225 405.219 702.392 391.646C819.559 378.072 926.351 496.409 925.009 612.812Z" stroke="url(#paint7_linear_142_38)" stroke-opacity="0.4" stroke-width="1.5" stroke-linecap="round"/>
<path d="M866.634 612.057C865.345 697.23 789.476 774.106 703.744 773.886C618.012 773.666 498.947 697.23 540.854 612.057C582.76 526.884 618.012 463.262 703.744 450.228C789.476 437.194 867.923 526.884 866.634 612.057Z" stroke="url(#paint8_linear_142_38)" stroke-opacity="0.4" stroke-width="1.5" stroke-linecap="round"/>
<path d="M808.014 611.439C806.769 665.382 759.147 714.143 704.85 713.931C650.553 713.718 561.247 665.382 601.686 611.439C642.125 557.496 650.553 521.525 704.85 508.947C759.147 496.37 809.258 557.496 808.014 611.439Z" stroke="url(#paint9_linear_142_38)" stroke-opacity="0.4" stroke-width="1.5" stroke-linecap="round"/>
<defs>
<linearGradient id="paint0_linear_142_38" x1="1" y1="1" x2="1295.81" y2="1" gradientUnits="userSpaceOnUse">
<stop stop-color="white"/>
<stop offset="0.9999" stop-color="white" stop-opacity="0.3"/>
</linearGradient>
<linearGradient id="paint1_linear_142_38" x1="84.6907" y1="49.5145" x2="1256.35" y2="49.5145" gradientUnits="userSpaceOnUse">
<stop stop-color="white"/>
<stop offset="0.9999" stop-color="white" stop-opacity="0.3"/>
</linearGradient>
<linearGradient id="paint2_linear_142_38" x1="156.128" y1="103.392" x2="1206.76" y2="103.392" gradientUnits="userSpaceOnUse">
<stop stop-color="white"/>
<stop offset="0.9999" stop-color="white" stop-opacity="0.3"/>
</linearGradient>
<linearGradient id="paint3_linear_142_38" x1="222.69" y1="159.422" x2="1153.11" y2="159.422" gradientUnits="userSpaceOnUse">
<stop stop-color="white"/>
<stop offset="0.9999" stop-color="white" stop-opacity="0.3"/>
</linearGradient>
<linearGradient id="paint4_linear_142_38" x1="286.789" y1="216.524" x2="1097.44" y2="216.524" gradientUnits="userSpaceOnUse">
<stop stop-color="white"/>
<stop offset="0.9999" stop-color="white" stop-opacity="0.3"/>
</linearGradient>
<linearGradient id="paint5_linear_142_38" x1="349.435" y1="274.23" x2="1040.61" y2="274.23" gradientUnits="userSpaceOnUse">
<stop stop-color="white"/>
<stop offset="0.9999" stop-color="white" stop-opacity="0.3"/>
</linearGradient>
<linearGradient id="paint6_linear_142_38" x1="411.1" y1="332.297" x2="983.057" y2="332.297" gradientUnits="userSpaceOnUse">
<stop stop-color="white"/>
<stop offset="0.9999" stop-color="white" stop-opacity="0.3"/>
</linearGradient>
<linearGradient id="paint7_linear_142_38" x1="472.001" y1="390.579" x2="925.021" y2="390.579" gradientUnits="userSpaceOnUse">
<stop stop-color="white"/>
<stop offset="0.9999" stop-color="white" stop-opacity="0.3"/>
</linearGradient>
<linearGradient id="paint8_linear_142_38" x1="532.182" y1="448.959" x2="866.65" y2="448.959" gradientUnits="userSpaceOnUse">
<stop stop-color="white"/>
<stop offset="0.9999" stop-color="white" stop-opacity="0.3"/>
</linearGradient>
<linearGradient id="paint9_linear_142_38" x1="591.493" y1="507.283" x2="808.036" y2="507.283" gradientUnits="userSpaceOnUse">
<stop stop-color="white"/>
<stop offset="0.9999" stop-color="white" stop-opacity="0.3"/>
</linearGradient>
</defs>
</svg>
